<?xml version="1.0" encoding="utf-8"?>
<!-- Generator: Adobe Illustrator 16.0.0, SVG Export Plug-In . SVG Version: 6.00 Build 0)  -->
<!DOCTYPE svg PUBLIC "-//W3C//DTD SVG 1.1//EN" "http://www.w3.org/Graphics/SVG/1.1/DTD/svg11.dtd">
<svg version="1.1" id="Layer_1" xmlns="http://www.w3.org/2000/svg" xmlns:xlink="http://www.w3.org/1999/xlink" x="0px" y="0px"
	 width="1000.801px" height="371.205px" viewBox="0 0 1000.801 371.205" enable-background="new 0 0 1000.801 371.205"
	 xml:space="preserve">
<g>
	<path fill="#FFFFFF" d="M500.342,12.167c2.526-4.126,6.719-8.442,11.232-10.268c7.77-3.535,18.184-2.015,24.522,3.579
		c6.135,5.557,9.246,13.174,7.777,21.689c1.505-0.277,3.023-1.241,4.616-1.789c9.522-2.688,19.593,0.227,25.698,8.391
		c4.586,5.828,5.784,14.883,3.031,21.923c-1.366,3.541-3.695,6.726-6.726,9.442l0.306,0.307c8.858,0.431,17.564,7.31,20.251,15.745
		c2.914,8.508,0.351,17.6-5.871,23.822c-5.083,5.024-11.619,6.763-18.886,6.616H434.383c-10.831,0.234-19.2-4.564-23.706-14.196
		c-3.535-8.268-1.789-18.842,4.813-25.144c4.163-4.353,9.377-6.135,15-7.033c-6.368-5.908-9.436-13.992-7.646-22.661
		c1.278-7.025,7.267-14.138,14.146-16.592c6.061-2.41,14.27-1.987,19.82,1.285l0.197-0.241c-1.673-9.56,2.563-18.184,10.494-23.472
		c7.07-4.783,18.375-4.659,25.297,0.424C495.909,5.901,498.473,9.173,500.342,12.167"/>
	<path fill="#645FAA" d="M537.688,15.738c2.834,5.718,1.169,13.211-1.789,18.345l-22.888,51.493l-0.197,0.241l-8.273-52.237
		c-0.664-5.017,4.695-7.157,7.851-9.567c-0.161-0.737-0.972-0.701-1.482-1.044l-7.733-0.081l-0.234-0.234
		c0.044-6.485,3.535-12.473,9.45-15.621c6.179-3.571,14.883-2.6,20.243,1.979C534.812,10.955,536.645,13.21,537.688,15.738"/>
	<path fill="#C9234A" d="M495.521,13.948c1.87,3.462,2.951,7.391,2.293,11.743l-9.333,59.811c0.051,0.073-0.037,0.153-0.11,0.189
		l-2.417-4.813l-23.391-52.237c-2.176-6.726-0.161-13.759,4.74-18.579c4.937-5.009,13.057-6.368,19.514-3.651
		C490.235,7.887,493.499,10.604,495.521,13.948"/>
	<path fill="#0089CF" d="M571.545,39.129c3.147,5.367,2.439,13.488-1.06,18.469c-2.168,3.498-5.747,5.244-8.777,7.537
		l-48.469,33.271h-0.11l0.541-1.591l25.691-57.992c3.849-6.835,11.195-10.297,18.965-9.253
		C563.65,30.541,568.975,34.002,571.545,39.129"/>
	<path fill="#F36F21" d="M461.439,38.822l26.736,59.577h-0.431l-53.902-37.15c-5.485-4.622-7.734-11.546-5.872-18.542
		c1.395-5.244,5.747-10.144,10.925-12.087C447.374,27.517,456.926,30.818,461.439,38.822"/>
	<path fill="#0DB14B" d="M585.61,81.186c2.688,5.674,1.629,13.444-2.213,18.271c-3.812,4.623-8.909,7.15-14.891,6.989l-57.474,0.037
		l48.147-33.498c4.704-3.031,11.854-3.58,16.987-1.125C580.133,73.416,583.865,77.301,585.61,81.186"/>
	<path fill="#FDB913" d="M415.417,81.186c-2.68,5.674-1.628,13.444,2.22,18.271c3.812,4.623,8.895,7.15,14.883,6.989l57.473,0.037
		l-48.147-33.498c-4.703-3.031-11.852-3.58-16.979-1.125C420.901,73.416,417.169,77.301,415.417,81.186"/>
	<path d="M888.913,269.921c-1.892,0-3.374,1.241-4.184,2.841c-0.811,1.6-37.493,92.199-37.493,92.199
		c-0.234,0.54-0.365,1.125-0.365,1.753c0,2.482,2.022,4.49,4.506,4.49c1.892,0,3.374-1.234,4.178-2.84
		c0.35-0.724,7.023-17.104,14.305-35.039h38.187l15.177,37.324h9.712c0,0-39.026-96.288-39.837-97.888
		C892.294,271.163,890.804,269.921,888.913,269.921 M873.905,323.35c7.75-19.091,15.008-37.034,15.008-37.034l15.073,37.034H873.905
		z"/>
	<path d="M236.335,279.905c10.866,0,21.083,4.235,28.759,11.896c1.811,1.825,5.243,1.825,7.054,0
		c0.935-0.92,1.453-2.169,1.453-3.513c0-1.314-0.518-2.578-1.453-3.513l-0.614-0.621c-9.493-9.172-21.996-14.219-35.2-14.219
		c-27.912,0-50.624,22.705-50.624,50.624s22.712,50.645,50.624,50.645c14.737,0,28.014-6.323,37.267-16.409l-7.047-7.04
		c-7.449,8.26-18.235,13.474-30.219,13.474c-22.42,0-40.67-18.249-40.67-40.669C195.666,298.155,213.916,279.905,236.335,279.905"/>
	<path d="M71.101,353.372c0,0-62.188-80.755-63.093-81.727c-0.917-0.964-2.1-1.709-3.527-1.709c-2.477,0-4.48,2.001-4.48,4.47
		v92.235c0,2.52,2.041,4.557,4.56,4.557c2.523,0,4.572-2.037,4.572-4.557v-78.856c0,0,62.188,80.748,63.101,81.712
		c0.894,0.963,2.092,1.701,3.52,1.701c2.468,0,4.48-1.993,4.48-4.469v-96.237h-9.132V353.372z"/>
	<path d="M463.046,353.372c0,0-62.191-80.755-63.097-81.727c-0.92-0.964-2.103-1.709-3.535-1.709c-2.468,0-4.476,2.001-4.476,4.47
		v92.235c0,2.52,2.044,4.557,4.563,4.557c2.52,0,4.572-2.037,4.572-4.557v-78.856c0,0,62.191,80.748,63.097,81.712
		c0.905,0.963,2.095,1.701,3.52,1.701c2.476,0,4.484-1.993,4.484-4.469v-96.237h-9.128V353.372z"/>
	<path d="M159.17,316.697c5.765-4.798,9.446-12.021,9.446-20.084c0-14.4-11.725-26.114-26.123-26.114h-36.642
		c-2.527,0-4.568,2.037-4.568,4.564v95.587h43.387c15.982,0,28.934-12.962,28.934-28.934
		C173.604,331.032,167.794,321.707,159.17,316.697 M110.419,280.459h32.074c8.899,0,16.168,7.259,16.168,16.153
		c0,8.903-7.27,16.17-16.168,16.17h-32.074V280.459z M144.67,360.689h-34.25v-37.953h34.25c10.486,0,18.98,8.501,18.98,18.98
		S155.156,360.689,144.67,360.689"/>
	<path d="M497.808,269.936c-2.527,0-4.571,2.045-4.571,4.571v96.143h9.136v-96.143C502.372,271.981,500.327,269.936,497.808,269.936
		"/>
	<path d="M361.755,331.09c0,16.629-14.351,30.153-30.979,30.153c-16.629,0-30.979-13.524-30.979-30.153V274.5
		c0-2.526-2.045-4.564-4.571-4.564c-2.513,0-4.564,2.038-4.564,4.564v56.59c0,22.113,18.001,40.107,40.114,40.107
		s40.122-17.994,40.122-40.107v-60.599h-9.143V331.09z"/>
	<path d="M673.42,280.446c2.754,0,4.981-2.235,4.981-4.981s-2.228-4.98-4.981-4.98h-52.493c-2.52,0-4.571,2.037-4.571,4.564v91.038
		c0,2.52,2.052,4.563,4.571,4.563l56.919-0.014v-9.955h-52.347v-37.945l43.766-0.015c2.754,0,4.988-2.234,4.988-4.987
		c0-2.739-2.234-4.959-4.988-4.959h-43.766v-32.329H673.42z"/>
	<path d="M821.143,321.209c-2.724-1.424-19.243-9.946-21.624-11.166c-8.66-4.425-11.729-8.34-11.729-14.985
		c0-9.209,7.566-15.16,19.303-15.16c6.887,0,13.539,3.03,17.446,5.221c0.715,0.395,1.54,0.606,2.417,0.606
		c2.739,0,4.973-2.228,4.973-4.973c0-1.834-1.007-3.447-2.49-4.302c-4.922-2.746-13.313-6.515-22.346-6.515
		c-17.242,0-29.271,10.334-29.271,25.122c0,13.284,8.734,19.55,17.271,23.925c2.387,1.219,19.104,9.837,21.608,11.144
		c6.609,3.469,10.254,8.646,10.254,14.62c0,8.004-6.77,16.505-19.316,16.505c-12.196,0-21.66-8.193-24.274-10.721l-0.774-0.737
		l-7.369,6.726l0.862,0.854c3.271,3.25,15.234,13.831,31.556,13.831c18.322,0,29.263-13.458,29.263-26.458
		C836.902,335.035,831.162,326.446,821.143,321.209"/>
	<path d="M761.26,299.417c0-15.971-12.956-28.926-28.942-28.926h-28.839c-2.526,0-4.571,2.044-4.571,4.564v91.585
		c0,2.52,2.045,4.557,4.571,4.557c2.52,0,4.558-2.037,4.558-4.557v-38.289h26.297l17.221,42.313h9.706l-18.083-44.432
		C753.773,321.933,761.26,311.555,761.26,299.417 M732.317,318.398h-24.281v-37.952h24.281c10.487,0,18.98,8.492,18.98,18.972
		C751.298,309.906,742.805,318.398,732.317,318.398"/>
	<path d="M957.026,360.689V274.5c0-2.526-2.036-4.564-4.563-4.564c-2.52,0-4.571,2.038-4.571,4.564v91.578
		c0,2.527,2.052,4.571,4.571,4.571h48.338v-9.961H957.026z"/>
	<path d="M559.363,354.795c0,0-32.563-80.427-33.359-82.033c-0.803-1.606-2.293-2.841-4.185-2.841c-2.482,0-4.49,2.002-4.49,4.477
		c0,0.629,0.116,1.22,0.351,1.768c0,0,36.696,90.6,37.492,92.199c0.811,1.605,2.301,2.84,4.191,2.84c1.892,0,3.374-1.234,4.178-2.84
		c0.817-1.6,39.837-97.888,39.837-97.888h-9.698L559.363,354.795z"/>
	<path d="M312.212,140.887c-27.926,0-50.623,22.712-50.623,50.639c0,27.919,22.697,50.645,50.623,50.645
		s50.638-22.726,50.638-50.645C362.851,163.6,340.139,140.887,312.212,140.887 M312.212,232.195
		c-22.427,0-40.677-18.249-40.677-40.669c0-22.414,18.25-40.663,40.677-40.663c22.428,0,40.677,18.25,40.677,40.663
		C352.89,213.946,334.64,232.195,312.212,232.195"/>
	<path d="M748.808,192.168c-2.717-1.425-19.243-9.932-21.616-11.167c-8.669-4.433-11.743-8.347-11.743-14.979
		c0-9.216,7.566-15.168,19.301-15.168c6.888,0,13.547,3.031,17.454,5.229c0.709,0.387,1.549,0.606,2.425,0.606
		c2.731,0,4.974-2.242,4.974-4.973c0-1.84-1.009-3.455-2.49-4.316c-4.922-2.747-13.313-6.507-22.362-6.507
		c-17.241,0-29.27,10.326-29.27,25.129c0,13.284,8.734,19.55,17.279,23.917c2.395,1.22,19.111,9.837,21.615,11.158
		c6.603,3.454,10.254,8.64,10.254,14.606c0,7.996-6.776,16.497-19.315,16.497c-12.196,0-21.668-8.18-24.282-10.699l-0.782-0.745
		l-7.368,6.719l0.861,0.861c3.271,3.244,15.234,13.832,31.571,13.832c18.315,0,29.263-13.459,29.263-26.465
		C764.575,205.993,758.835,197.411,748.808,192.168"/>
	<path d="M208.395,150.863c10.874,0,21.09,4.236,28.758,11.896c1.826,1.818,5.258,1.818,7.055,0
		c0.949-0.927,1.453-2.176,1.453-3.513c0-1.322-0.504-2.585-1.453-3.513l-0.613-0.628c-9.479-9.172-21.989-14.218-35.2-14.218
		c-27.912,0-50.624,22.719-50.624,50.631c0,27.927,22.712,50.652,50.624,50.652c14.736,0,28.013-6.323,37.266-16.402l-7.047-7.055
		c-7.449,8.268-18.228,13.481-30.219,13.481c-22.42,0-40.67-18.257-40.67-40.677C167.725,169.12,185.975,150.863,208.395,150.863"/>
	<path d="M551.652,150.863c10.859,0,21.09,4.236,28.758,11.896c1.818,1.818,5.251,1.818,7.048,0
		c0.949-0.927,1.475-2.176,1.475-3.513c0-1.322-0.525-2.585-1.475-3.513l-0.606-0.628c-9.501-9.172-21.996-14.218-35.199-14.218
		c-27.919,0-50.639,22.719-50.639,50.631c0,27.927,22.72,50.652,50.639,50.652c14.729,0,28.006-6.323,37.273-16.402l-7.055-7.055
		c-7.449,8.268-18.243,13.481-30.219,13.481c-22.428,0-40.685-18.257-40.685-40.677C510.968,169.12,529.225,150.863,551.652,150.863
		"/>
	<path d="M465.88,140.887c-1.87,0-3.345,1.205-4.148,2.761c-0.818,1.555-29.796,73.233-29.803,73.233
		c0,0-28.978-71.679-29.789-73.233c-0.811-1.556-2.285-2.761-4.155-2.761c-2.184,0-3.827,1.606-4.403,3.63
		c-0.577,2.037-16.928,92.249-16.928,92.249c-0.059,0.293-0.088,0.6-0.088,0.913c0,2.482,2.023,4.491,4.491,4.491
		c2.191,0,4.017-1.563,4.411-3.629l14.16-77.184c0,0,27.32,67.493,28.116,69.099c0.804,1.6,2.293,2.849,4.192,2.849
		s3.381-1.249,4.177-2.849c0.804-1.606,28.124-69.099,28.124-69.099l14.715,80.258h9.144c0,0-17.228-95.062-17.805-97.099
		C469.707,142.494,468.063,140.887,465.88,140.887"/>
	<path d="M645.91,140.894c-1.892-0.007-3.358,1.228-4.185,2.833c-0.818,1.6-37.5,92.2-37.5,92.2
		c-0.22,0.532-0.344,1.124-0.344,1.752c0,2.482,2.009,4.499,4.491,4.499c1.892,0,3.513-1.184,4.178-2.855l14.24-35.031h38.245
		l15.19,37.324h9.705c0,0-39.041-96.289-39.844-97.888C649.291,142.122,647.809,140.887,645.91,140.894 M630.852,194.322
		l15.059-37.025l15.073,37.025H630.852z"/>
	<path d="M838.034,141.427h-56.378c-2.746,0-4.974,2.235-4.974,4.988c0,2.738,2.228,4.973,4.974,4.973h23.632v90.22h9.129v-90.22
		h23.617c2.746,0,4.995-2.234,4.995-4.973C843.029,143.663,840.78,141.427,838.034,141.427"/>
</g>
</svg>
