<svg version="1.1" id="Layer_1" xmlns="http://www.w3.org/2000/svg" xmlns:xlink="http://www.w3.org/1999/xlink" x="0px" y="0px" viewBox="0 0 372.7 77" style="enable-background:new 0 0 372.7 77;" xml:space="preserve">
<style type="text/css">
	.st0{fill:#585858;}
</style>
<path d="M40.9,19.5l-10.3,3.6c-1.4-4.3-4.3-6.4-8.8-6.4c-4.8,0-7.2,1.6-7.2,4.9c0,1.3,0.4,2.4,1.3,3.3c0.9,0.9,2.9,1.7,6.1,2.3
	c5.3,1.1,9.1,2.3,11.6,3.4c2.5,1.1,4.5,3,6.2,5.5c1.7,2.5,2.5,5.3,2.5,8.4c0,4.9-1.8,9.1-5.4,12.6c-3.6,3.6-9,5.3-16,5.3
	c-5.3,0-9.8-1.3-13.6-3.8C3.6,56.2,1.2,52.4,0,47.5l11.2-2.6c1.3,5,4.8,7.6,10.5,7.6c2.8,0,4.9-0.6,6.2-1.7c1.4-1.1,2.1-2.5,2.1-4
	c0-1.6-0.6-2.8-1.9-3.7c-1.2-0.9-3.6-1.7-7.2-2.5c-6.6-1.4-11.3-3.4-14.1-5.8c-2.8-2.5-4.2-6.1-4.2-10.8c0-4.8,1.7-8.9,5-12.1
	c3.3-3.3,7.9-4.9,13.6-4.9C31.5,6.9,38,11.1,40.9,19.5"></path>
<polygon points="79.1,25.9 59.3,25.9 59.3,34.7 74.9,34.7 74.9,42.9 59.3,42.9 59.3,52.3 79.1,52.3 79.1,60.8 49.5,60.8 49.5,17.7
	79.1,17.7 "></polygon>
<path d="M97.3,44h8.8l-4.4-15.2L97.3,44z M108.4,17.7l13,43.1h-10.4l-2.6-8.9H95l-2.6,8.9h-8.5l13.2-43.1H108.4z"></path>
<polygon points="165.2,60.7 155.1,25.6 155.1,60.7 146.9,60.7 146.9,17.7 162,17.7 169.3,43.4 176.9,17.7 192,17.7 192,60.7
	182.3,60.7 182.3,25.6 171.9,60.7 "></polygon>
<polygon points="228.8,25.9 209,25.9 209,34.7 224.6,34.7 224.6,42.9 209,42.9 209,52.3 228.8,52.3 228.8,60.8 199.2,60.8
	199.2,17.7 228.8,17.7 "></polygon>
<path d="M265.3,27.3l-8.2,2.9c-1.1-3.4-3.5-5.1-7.1-5.1c-3.8,0-5.7,1.3-5.7,3.9c0,1,0.3,1.9,1.1,2.6c0.7,0.7,2.3,1.3,4.9,1.9
	c4.2,0.9,7.3,1.8,9.3,2.7c2,0.9,3.6,2.4,5,4.4c1.3,2,2,4.3,2,6.7c0,3.9-1.4,7.3-4.3,10.1c-2.9,2.8-7.1,4.3-12.8,4.3
	c-4.3,0-7.9-1-10.8-3c-3-2-5-5-5.9-9l9-2.1c1,4,3.8,6,8.4,6c2.2,0,3.9-0.4,5-1.4c1.1-0.9,1.6-2,1.6-3.2c0-1.3-0.5-2.2-1.5-2.9
	c-1-0.7-2.9-1.4-5.7-2c-5.3-1.1-9-2.7-11.3-4.7c-2.2-2-3.4-4.9-3.4-8.6c0-3.8,1.3-7.1,4-9.7c2.7-2.6,6.3-4,10.9-4
	C257.8,17.2,263,20.6,265.3,27.3"></path>
<polygon points="299.3,17.7 299.3,26.2 289.1,26.2 289.1,60.8 279.2,60.8 279.2,26.2 268.9,26.2 268.9,17.7 "></polygon>
<polygon points="333.1,25.9 313.4,25.9 313.4,34.7 328.9,34.7 328.9,42.9 313.4,42.9 313.4,52.3 333.1,52.3 333.1,60.8 303.5,60.8
	303.5,17.7 333.1,17.7 "></polygon>
<path d="M348.7,25.3v11h5.9c2,0,3.4-0.1,4.3-0.4c0.9-0.3,1.7-0.9,2.3-1.9c0.7-1,1-2.1,1-3.4c0-1.2-0.3-2.3-1-3.2
	c-0.7-0.9-1.4-1.5-2.2-1.8c-0.8-0.2-2.3-0.3-4.5-0.3H348.7z M348.7,43.7v17.1h-9.8V17.6h18.2c3.4,0,6.1,0.4,8.1,1.2
	c2,0.8,3.7,2.3,5,4.5c1.3,2.2,2,4.6,2,7.3c0,5.2-2.4,8.9-7.2,11.2l7.7,19H362l-6.4-17.1H348.7z"></path>
<g>
	<line class="st0" x1="133" y1="0" x2="133" y2="77"></line>
	<rect x="131.7" width="2.5" height="77"></rect>
</g>
</svg>
